<svg width="24" height="24" viewBox="0 0 24 24" fill="none" xmlns="http://www.w3.org/2000/svg">
<path d="M18 24C21.3137 24 24 21.3137 24 18C24 14.6863 21.3137 12 18 12C14.6863 12 12 14.6863 12 18C12 21.3137 14.6863 24 18 24ZM18.6061 13.9653L21.1775 16.5368C21.5123 16.8715 21.5123 17.4142 21.1775 17.7489C20.8428 18.0837 20.3001 18.0837 19.9653 17.7489L18.8571 16.6408V21.4286C18.8571 21.902 18.4734 22.2857 18 22.2857C17.5266 22.2857 17.1429 21.902 17.1429 21.4286V16.6408L16.0347 17.7489C15.6999 18.0837 15.1572 18.0837 14.8225 17.7489C14.4877 17.4142 14.4877 16.8715 14.8225 16.5368L17.3939 13.9653C17.5547 13.8046 17.7727 13.7143 18 13.7143C18.2273 13.7143 18.4453 13.8046 18.6061 13.9653Z" fill="#f9f9f9"/>
<path d="M15.4286 5.14286C15.4286 7.98318 13.126 10.2857 10.2857 10.2857C7.44539 10.2857 5.14286 7.98318 5.14286 5.14286C5.14286 2.30254 7.44539 0 10.2857 0C13.126 0 15.4286 2.30254 15.4286 5.14286ZM10.2857 8.57143C12.1793 8.57143 13.7143 7.0364 13.7143 5.14286C13.7143 3.24931 12.1793 1.71429 10.2857 1.71429C8.39217 1.71429 6.85714 3.24931 6.85714 5.14286C6.85714 7.0364 8.39217 8.57143 10.2857 8.57143Z" fill="#f9f9f9"/>
<path d="M10.7247 20.5714C10.5311 20.0238 10.3976 19.4477 10.3321 18.8512H1.71429C1.71673 18.4281 1.97787 17.1608 3.14074 15.9979C4.25889 14.8797 6.36151 13.7143 10.2857 13.7143C10.7323 13.7143 11.1552 13.7294 11.5559 13.7578C11.9419 13.1726 12.4054 12.6432 12.9319 12.184C12.1321 12.0654 11.2525 12 10.2857 12C1.71429 12 0 17.1429 0 18.8571C0 20.5714 1.71429 20.5714 1.71429 20.5714H10.7247Z" fill="#f9f9f9"/>
</svg>
