<svg width="24" height="24" viewBox="0 0 24 24" fill="none" xmlns="http://www.w3.org/2000/svg">
<path d="M20.3637 14.4241C18.6997 13.3216 16.4357 13.5034 14.9695 14.9695C13.5034 16.4357 13.3216 18.6997 14.4241 20.3637L20.3637 14.4241ZM21.5759 15.6363L15.6363 21.5759C17.3003 22.6784 19.5643 22.4966 21.0305 21.0305C22.4966 19.5643 22.6784 17.3003 21.5759 15.6363ZM13.7574 13.7574C16.1005 11.4142 19.8995 11.4142 22.2426 13.7574C24.5858 16.1005 24.5858 19.8995 22.2426 22.2426C19.8995 24.5858 16.1005 24.5858 13.7574 22.2426C11.4142 19.8995 11.4142 16.1005 13.7574 13.7574Z" fill="#f9f9f9"/>
<path d="M15.4286 5.14286C15.4286 7.98318 13.126 10.2857 10.2857 10.2857C7.44539 10.2857 5.14286 7.98318 5.14286 5.14286C5.14286 2.30254 7.44539 0 10.2857 0C13.126 0 15.4286 2.30254 15.4286 5.14286ZM10.2857 8.57143C12.1793 8.57143 13.7143 7.0364 13.7143 5.14286C13.7143 3.24931 12.1793 1.71429 10.2857 1.71429C8.39217 1.71429 6.85714 3.24931 6.85714 5.14286C6.85714 7.0364 8.39217 8.57143 10.2857 8.57143Z" fill="#f9f9f9"/>
<path d="M10.7247 20.5714C10.5311 20.0238 10.3976 19.4477 10.3321 18.8512H1.71429C1.71673 18.4281 1.97787 17.1608 3.14074 15.9979C4.25889 14.8797 6.36151 13.7143 10.2857 13.7143C10.7323 13.7143 11.1552 13.7294 11.5559 13.7578C11.9419 13.1726 12.4054 12.6432 12.9319 12.184C12.1321 12.0654 11.2525 12 10.2857 12C1.71429 12 0 17.1429 0 18.8571C0 20.5714 1.71429 20.5714 1.71429 20.5714H10.7247Z" fill="#f9f9f9"/>
</svg>
